<?xml version="1.0" standalone="no"?><!DOCTYPE svg PUBLIC "-//W3C//DTD SVG 1.1//EN" "http://www.w3.org/Graphics/SVG/1.1/DTD/svg11.dtd"><svg class="icon" height="512" viewBox="0 0 1024 1024" version="1.1" xmlns="http://www.w3.org/2000/svg"><path d="M332.8 320A192 192 0 0 1 524.8 128a192 192 0 0 1 192 192c0 22.5792-4.608 43.904-11.776 64H844.8v-64C844.8 143.2832 701.5168 0 524.8 0 348.032 0 204.8 143.232 204.8 320V384h139.776c-7.168-20.1472-11.776-41.472-11.776-64zM844.8 384H204.8a128 128 0 0 0-128 128v384c0 70.7328 57.2928 128 128 128h640a128 128 0 0 0 128-128V512a128 128 0 0 0-128-128zM588.8 750.208V832a64 64 0 0 1-128 0v-81.7152c-38.0928-22.2208-64-63.0528-64-110.2848 0-70.7328 57.2928-128 128-128s128 57.2672 128 128c0 47.232-25.9072 88.064-64 110.208z" fill="#B3B3B3" /></svg>